HIERARCHY
ROOT Hips
{
  OFFSET 16.5571 40.1322 -7.5601
  CHANNELS 6 Xposition Yposition Zposition Zrotation Xrotation Yrotation
  JOINT LeftHip
  {
    OFFSET 3.43 -2.84217e-013 0
    CHANNELS 6 Xposition Yposition Zposition Zrotation Xrotation Yrotation
    JOINT LeftKnee
    {
      OFFSET -1.77636e-014 -18.47 -7.99361e-015
      CHANNELS 6 Xposition Yposition Zposition Zrotation Xrotation Yrotation
      JOINT LeftAnkle
      {
        OFFSET -7.10543e-015 -17.95 -1.33227e-015
        CHANNELS 6 Xposition Yposition Zposition Zrotation Xrotation Yrotation
        End Site
        {
          OFFSET 0 -3.12 0
        }
      }
    }
  }
  JOINT RightHip
  {
    OFFSET -3.43 -3.97904e-013 -3.4639e-014
    CHANNELS 6 Xposition Yposition Zposition Zrotation Xrotation Yrotation
    JOINT RightKnee
    {
      OFFSET 8.88178e-015 -18.47 -7.10543e-015
      CHANNELS 6 Xposition Yposition Zposition Zrotation Xrotation Yrotation
      JOINT RightAnkle
      {
        OFFSET 5.32907e-015 -17.95 0
        CHANNELS 6 Xposition Yposition Zposition Zrotation Xrotation Yrotation
        End Site
        {
          OFFSET 0 -3.12 0
        }
      }
    }
  }
  JOINT Chest
  {
    OFFSET -1.3145e-013 4.57 0
    CHANNELS 6 Xposition Yposition Zposition Zrotation Xrotation Yrotation
    JOINT Chest2
    {
      OFFSET 3.55271e-014 6.57 -3.55271e-015
      CHANNELS 6 Xposition Yposition Zposition Zrotation Xrotation Yrotation
      JOINT LeftCollar
      {
        OFFSET 1.06 4.19 1.76
        CHANNELS 6 Xposition Yposition Zposition Zrotation Xrotation Yrotation
        JOINT LeftShoulder
        {
          OFFSET 5.81 -7.81597e-014 -2.04281e-014
          CHANNELS 6 Xposition Yposition Zposition Zrotation Xrotation Yrotation
          JOINT LeftElbow
          {
            OFFSET 2.13163e-014 -12.08 7.10543e-015
            CHANNELS 6 Xposition Yposition Zposition Zrotation Xrotation Yrotation
            JOINT LeftWrist
            {
              OFFSET -1.42109e-014 -9.82 -2.66454e-015
              CHANNELS 6 Xposition Yposition Zposition Zrotation Xrotation Yrotation
              End Site
              {
                OFFSET 0 -7.37 0
              }
            }
          }
        }
      }
      JOINT RightCollar
      {
        OFFSET -1.06 4.19 1.76
        CHANNELS 6 Xposition Yposition Zposition Zrotation Xrotation Yrotation
        JOINT RightShoulder
        {
          OFFSET -6.06 3.55271e-014 6.21725e-015
          CHANNELS 6 Xposition Yposition Zposition Zrotation Xrotation Yrotation
          JOINT RightElbow
          {
            OFFSET 0 -11.08 -3.55271e-015
            CHANNELS 6 Xposition Yposition Zposition Zrotation Xrotation Yrotation
            JOINT RightWrist
            {
              OFFSET -7.10543e-015 -9.82 1.77636e-015
              CHANNELS 6 Xposition Yposition Zposition Zrotation Xrotation Yrotation
              End Site
              {
                OFFSET 0 -7.14001 0
              }
            }
          }
        }
      }
      JOINT Neck
      {
        OFFSET -3.55271e-015 4.05 5.55112e-016
        CHANNELS 6 Xposition Yposition Zposition Zrotation Xrotation Yrotation
        JOINT Head
        {
          OFFSET -3.55271e-015 5.19 0
          CHANNELS 6 Xposition Yposition Zposition Zrotation Xrotation Yrotation
          End Site
          {
            OFFSET 0 4.14001 0
          }
        }
      }
    }
  }
}
MOTION
Frames:	10
Frame Time:	0.0333333
14.8005 40.088 -7.90743 -0.20359 -0.188514 -2.75306 3.43 2.84217e-013 0 -3.18745 0.277716 3.82817 -1.77636e-014 -18.47 -7.99361e-015 -0.0625558 4.27908 15.127 -7.10543e-015 -17.95 -1.33227e-015 2.12565 -3.87107 0.0718433 -3.43 7.10543e-015 -3.4639e-014 -0.510978 -0.435517 -6.44163 8.88178e-015 -18.47 -7.10543e-015 0.655528 3.85523 -8.52269 5.32907e-015 -17.95 0 0.155732 -3.06641 0.00416831 5.91666e-012 4.57 0 1.07212 -4.56848 1.17513 3.55271e-014 6.57 -3.55271e-015 0.865455 -4.20205 1.07641 1.06 4.19 1.76 -5.80109 0.90933 -1.98114 5.81 -7.94044e-013 -2.04281e-014 24.9647 5.9382 -26.4226 2.13163e-014 -12.08 7.10543e-015 -19.8626 -42.8242 0.703642 -1.42109e-014 -9.82 -2.66454e-015 -0.345628 8.881 0.0268405 -1.06 4.19 1.76 12.0418 1.40904 4.00914 -6.06 3.55271e-014 6.21725e-015 -34.6905 19.5388 27.34 0 -11.08 -3.55271e-015 21.078 -46.6583 -0.0642202 -7.10543e-015 -9.82 1.77636e-015 -5.57635 8.84287 0.431514 -3.55271e-015 4.05 5.55112e-016 -0.273468 13.2281 0.789712 -3.55271e-015 5.19 0 -0.735429 -0.920104 0.987314 
14.8011 40.0949 -7.90324 -0.0931849 -0.228316 -2.54528 3.43 0 0 -3.30035 0.307893 3.74699 -1.77636e-014 -18.47 -7.99361e-015 -0.0597589 4.24501 14.9766 -7.10543e-015 -17.95 -1.33227e-015 2.15 -3.75908 0.0705625 -3.43 2.84217e-013 -3.4639e-014 -0.618966 -0.359407 -6.55416 8.88178e-015 -18.47 -7.10543e-015 0.689185 3.83727 -8.63267 5.32907e-015 -17.95 0 0.061955 -3.1223 0.00168852 5.90164e-012 4.57 0 0.96907 -4.54654 1.1446 3.55271e-014 6.57 -3.55271e-015 0.775355 -4.18117 1.03964 1.06 4.19 1.76 -5.65827 0.902769 -1.99158 5.81 -8.00465e-013 -2.04281e-014 24.8214 6.0627 -26.3892 2.13163e-014 -12.08 7.10543e-015 -19.7296 -42.2921 1.29186 -1.42109e-014 -9.82 -2.66454e-015 -0.794742 9.54501 0.0663534 -1.06 4.19 1.76 12.0944 1.41167 4.00008 -6.06 3.55271e-014 6.21725e-015 -34.5385 19.6556 27.1391 0 -11.08 -3.55271e-015 20.9412 -46.5851 0.082101 -7.10543e-015 -9.82 1.77636e-015 -5.50835 8.66691 0.417729 -3.55271e-015 4.05 5.55112e-016 -0.207239 13.3062 0.825978 -3.55271e-015 5.19 0 -0.882725 -1.0333 1.05808 
14.8094 40.0849 -7.91171 -0.171906 -0.163904 -2.4222 3.43 -2.84217e-013 0 -3.24248 0.129292 3.71372 -1.77636e-014 -18.47 -7.99361e-015 -0.00398958 4.47491 14.8397 -7.10543e-015 -17.95 -1.33227e-015 2.11072 -3.87208 0.0713571 -3.43 1.98952e-013 -3.4639e-014 -0.574865 -0.411072 -6.55354 8.88178e-015 -18.47 -7.10543e-015 0.726445 3.80738 -8.76526 5.32907e-015 -17.95 0 0.0995232 -3.11685 0.00270766 5.88653e-012 4.57 0 1.07252 -4.58775 1.18089 3.55271e-014 6.57 -3.55271e-015 0.866498 -4.21998 1.078 1.06 4.19 1.76 -5.76839 0.911077 -2.05269 5.81 -8.06376e-013 -2.04281e-014 24.9438 6.55693 -26.2625 2.13163e-014 -12.08 7.10543e-015 -19.7948 -42.7319 1.24764 -1.42109e-014 -9.82 -2.66454e-015 -0.106756 8.62099 0.00804667 -1.06 4.19 1.76 11.9753 1.40253 3.98939 -6.06 3.55271e-014 6.21725e-015 -34.489 19.7812 27.0781 0 -11.08 -3.55271e-015 20.9205 -46.6892 0.26376 -7.10543e-015 -9.82 1.77636e-015 -5.39219 8.81345 0.415848 -3.55271e-015 4.05 5.55112e-016 -0.254441 13.375 0.857668 -3.55271e-015 5.19 0 -1.08216 -1.06495 1.10727 
14.8094 40.0866 -7.9104 -0.196562 -0.197335 -2.36165 3.43 -7.10543e-015 0 -3.1899 0.187852 3.79004 -1.77636e-014 -18.47 -7.99361e-015 -0.057654 4.4248 14.845 -7.10543e-015 -17.95 -1.33227e-015 2.13818 -3.858 0.0720224 -3.43 0 -3.4639e-014 -0.546136 -0.389291 -6.52495 8.88178e-015 -18.47 -7.10543e-015 0.69322 3.87093 -8.8359 5.32907e-015 -17.95 0 0.260246 -3.09659 0.00703431 5.87132e-012 4.57 0 1.11613 -4.56006 1.22688 3.55271e-014 6.57 -3.55271e-015 0.902583 -4.19552 1.12344 1.06 4.19 1.76 -5.77989 0.908514 -1.98602 5.81 -8.11784e-013 -2.04281e-014 24.7544 6.79833 -25.9313 2.13163e-014 -12.08 7.10543e-015 -19.5928 -42.58 1.91507 -1.42109e-014 -9.82 -2.66454e-015 0.226327 8.43586 -0.0166916 -1.06 4.19 1.76 12.0074 1.39973 3.94068 -6.06 3.55271e-014 6.21725e-015 -34.6289 19.7092 27.2084 0 -11.08 -3.55271e-015 20.9542 -46.6732 0.120337 -7.10543e-015 -9.82 1.77636e-015 -5.27039 8.98188 0.41424 -3.55271e-015 4.05 5.55112e-016 -0.276636 13.4321 1.01533 -3.55271e-015 5.19 0 -1.10229 -1.12228 1.25704 
14.8109 40.0793 -7.91809 -0.0822568 -0.115587 -2.231 3.43 -2.84217e-013 0 -3.27077 -0.00216026 3.73415 -1.77636e-014 -18.47 -7.99361e-015 -0.108393 4.59698 14.7175 -7.10543e-015 -17.95 -1.33227e-015 2.1613 -3.90544 0.0736973 -3.43 -1.77636e-013 -3.4639e-014 -0.669297 -0.488368 -6.58522 8.88178e-015 -18.47 -7.10543e-015 0.692686 3.93716 -8.93424 5.32907e-015 -17.95 0 0.441813 -3.19184 0.0123095 5.85601e-012 4.57 0 1.06239 -4.64601 1.28056 3.55271e-014 6.57 -3.55271e-015 0.849607 -4.27388 1.16692 1.06 4.19 1.76 -5.84963 0.902501 -1.78768 5.81 -8.16697e-013 -2.04281e-014 24.7515 6.88179 -25.8407 2.13163e-014 -12.08 7.10543e-015 -19.4959 -42.565 2.31625 -1.42109e-014 -9.82 -2.66454e-015 -0.439637 9.44122 0.0363041 -1.06 4.19 1.76 11.8232 1.38958 3.96261 -6.06 3.55271e-014 6.21725e-015 -34.3883 19.7372 27.1914 0 -11.08 -3.55271e-015 20.9089 -46.4283 0.128916 -7.10543e-015 -9.82 1.77636e-015 -5.24631 8.9853 0.412503 -3.55271e-015 4.05 5.55112e-016 -0.291601 13.5623 0.96739 -3.55271e-015 5.19 0 -1.14301 -1.12056 1.21087 
14.8098 40.0733 -7.92056 -0.0501739 -0.182918 -2.07491 3.43 2.84217e-013 0 -3.30881 0.123172 3.70381 -1.77636e-014 -18.47 -7.99361e-015 -0.104755 4.46295 14.5489 -7.10543e-015 -17.95 -1.33227e-015 2.1928 -3.8821 0.0743246 -3.43 2.84217e-013 -3.4639e-014 -0.712683 -0.428543 -6.63453 8.88178e-015 -18.47 -7.10543e-015 0.706991 4.01279 -8.97238 5.32907e-015 -17.95 0 0.491421 -3.27915 0.0140664 5.8406e-012 4.57 0 1.04726 -4.57625 1.3128 3.55271e-014 6.57 -3.55271e-015 0.833599 -4.20995 1.1986 1.06 4.19 1.76 -6.00792 0.910732 -1.80184 5.81 -8.21121e-013 -2.04281e-014 24.9376 6.93102 -25.846 2.13163e-014 -12.08 7.10543e-015 -19.5657 -42.7884 1.79805 -1.42109e-014 -9.82 -2.66454e-015 -0.242052 8.99328 0.0190357 -1.06 4.19 1.76 11.6761 1.38677 4.03401 -6.06 3.55271e-014 6.21725e-015 -34.3377 19.6657 27.3599 0 -11.08 -3.55271e-015 20.9485 -46.3272 0.265297 -7.10543e-015 -9.82 1.77636e-015 -5.32488 8.91404 0.415355 -3.55271e-015 4.05 5.55112e-016 -0.373653 13.5185 0.963069 -3.55271e-015 5.19 0 -0.812793 -1.07376 1.07275 
14.8113 40.0771 -7.9245 -0.157083 -0.164805 -1.85122 3.43 2.84217e-013 0 -3.19148 -0.0304205 3.73459 -1.77636e-014 -18.47 -7.99361e-015 -0.0879417 4.71614 14.2963 -7.10543e-015 -17.95 -1.33227e-015 2.17149 -3.97009 0.0752716 -3.43 -2.70006e-013 -3.4639e-014 -0.580058 -0.386256 -6.57035 8.88178e-015 -18.47 -7.10543e-015 0.679194 3.8955 -9.27321 5.32907e-015 -17.95 0 0.459645 -3.21625 0.0129044 5.8251e-012 4.57 0 1.10493 -4.58356 1.38836 3.55271e-014 6.57 -3.55271e-015 0.879401 -4.2197 1.26551 1.06 4.19 1.76 -5.66137 0.904782 -2.03199 5.81 -8.25064e-013 -2.04281e-014 24.4844 6.69006 -25.7858 2.13163e-014 -12.08 7.10543e-015 -19.3344 -42.1659 2.22898 -1.42109e-014 -9.82 -2.66454e-015 -1.03729 9.3596 0.0849149 -1.06 4.19 1.76 11.9139 1.39173 3.92362 -6.06 3.55271e-014 6.21725e-015 -34.6182 19.7687 27.4925 0 -11.08 -3.55271e-015 21.0559 -46.59 0.216689 -7.10543e-015 -9.82 1.77636e-015 -5.49911 8.91741 0.429129 -3.55271e-015 4.05 5.55112e-016 -0.244686 13.5173 0.763516 -3.55271e-015 5.19 0 -0.894271 -1.10585 0.960182 
14.8103 40.0819 -7.92288 -0.0884021 -0.240652 -1.66098 3.43 1.15792e-013 0 -3.22847 -0.00135925 3.74829 -1.77636e-014 -18.47 -7.99361e-015 -0.126106 4.76888 14.2423 -7.10543e-015 -17.95 -1.33227e-015 2.18239 -3.89349 0.0741889 -3.43 -2.84217e-013 -3.4639e-014 -0.626744 -0.301797 -6.61222 8.88178e-015 -18.47 -7.10543e-015 0.639456 3.92514 -9.47489 5.32907e-015 -17.95 0 0.545411 -3.22493 0.0153536 5.80951e-012 4.57 0 1.00952 -4.50096 1.45725 3.55271e-014 6.57 -3.55271e-015 0.786673 -4.14605 1.31937 1.06 4.19 1.76 -5.49928 0.901457 -2.1382 5.81 -8.28534e-013 -2.04281e-014 24.4992 6.45508 -25.9486 2.13163e-014 -12.08 7.10543e-015 -19.4256 -42.0362 1.97206 -1.42109e-014 -9.82 -2.66454e-015 -0.971704 9.14973 0.0777542 -1.06 4.19 1.76 12.1284 1.40466 3.90985 -6.06 3.55271e-014 6.21725e-015 -34.7812 19.6808 27.6161 0 -11.08 -3.55271e-015 21.1616 -46.5415 0.076801 -7.10543e-015 -9.82 1.77636e-015 -5.61646 8.90986 0.437929 -3.55271e-015 4.05 5.55112e-016 0.0277367 13.3992 0.698379 -3.55271e-015 5.19 0 -1.19621 -1.09177 1.0805 
14.8138 40.0864 -7.92854 0.00193588 -0.253336 -1.43309 3.43 -1.15792e-013 0 -3.31294 0.0109407 3.68079 -1.77636e-014 -18.47 -7.99361e-015 -0.130933 4.70911 14.0685 -7.10543e-015 -17.95 -1.33227e-015 2.21321 -3.76272 0.0727079 -3.43 -2.5494e-013 -3.4639e-014 -0.695837 -0.283788 -6.63944 8.88178e-015 -18.47 -7.10543e-015 0.59404 3.95269 -9.60845 5.32907e-015 -17.95 0 0.58456 -3.24911 0.0165791 5.79382e-012 4.57 0 0.948736 -4.49979 1.41376 3.55271e-014 6.57 -3.55271e-015 0.736 -4.14317 1.27705 1.06 4.19 1.76 -5.63256 0.907615 -2.1252 5.81 -8.31538e-013 -2.04281e-014 24.7641 6.58324 -26.0342 2.13163e-014 -12.08 7.10543e-015 -19.5793 -42.4026 1.49457 -1.42109e-014 -9.82 -2.66454e-015 -0.339383 8.35745 0.0247961 -1.06 4.19 1.76 12.278 1.42686 4.0268 -6.06 3.55271e-014 6.21725e-015 -34.8708 19.6927 27.4712 0 -11.08 -3.55271e-015 21.033 -46.3784 0.13078 -7.10543e-015 -9.82 1.77636e-015 -5.34647 9.06233 0.424008 -3.55271e-015 4.05 5.55112e-016 0.0151702 13.4918 0.745522 -3.55271e-015 5.19 0 -1.17435 -1.44023 1.11123 
14.816 40.0924 -7.93048 0.0566235 -0.172598 -1.36404 3.43 -2.84217e-013 0 -3.33437 -0.0634168 3.69214 -1.77636e-014 -18.47 -7.99361e-015 -0.205821 4.6639 13.9262 -7.10543e-015 -17.95 -1.33227e-015 2.2994 -3.67542 0.0737864 -3.43 -2.06321e-013 -3.4639e-014 -0.713296 -0.350592 -6.60512 8.88178e-015 -18.47 -7.10543e-015 0.534831 3.89838 -9.66774 5.32907e-015 -17.95 0 0.525872 -3.24906 0.0149143 5.77803e-012 4.57 0 0.93122 -4.55816 1.46235 3.55271e-014 6.57 -3.55271e-015 0.714964 -4.19674 1.32028 1.06 4.19 1.76 -5.81 0.913812 -2.06656 5.81 -8.34083e-013 -2.04281e-014 24.9243 6.56143 -26.0011 2.13163e-014 -12.08 7.10543e-015 -19.6077 -42.5222 1.58631 -1.42109e-014 -9.82 -2.66454e-015 -0.4666 9.14326 0.0373095 -1.06 4.19 1.76 12.1669 1.42829 4.11336 -6.06 3.55271e-014 6.21725e-015 -34.9421 19.5681 27.8022 0 -11.08 -3.55271e-015 21.2627 -46.337 0.41437 -7.10543e-015 -9.82 1.77636e-015 -5.60737 8.68737 0.426258 -3.55271e-015 4.05 5.55112e-016 -0.0502672 13.4324 0.824984 -3.55271e-015 5.19 0 -1.05119 -1.44441 1.13747 
